<svg xmlns="http://www.w3.org/2000/svg" width="592.288" height="789.921" viewBox="0 0 592.288 789.921">
  <g id="glider" transform="translate(-0.004 -0.003)">
    <g id="Background" transform="translate(0.004 416.529)">
      <path id="Path" d="M.525,34.862C4.319,23.4,31.034-1.157,33.919.042S15.065,15.235,5.325,38.945C4.742,40.408-1.883,42.172.525,34.862Z" transform="translate(437.796 285.893)" fill="#fff"/>
      <path id="Path-2" data-name="Path" d="M.818,18.884c2.744-5.837,10.711-3.342,17.478-.943C15.376,9.2,19.681-1.457,26.713.165s1.923,12.344-.309,18.19c4.544-.626,12.9-5.511,16,0s-6.935,6.022-11.469,5.423C32.509,27.305,41.9,36.7,33.118,37.7c-6.343.732-9.7-2.7-11.6-10.669C9.35,27.19-3.381,27.825.818,18.884Z" transform="translate(446.996 262.906)" fill="#ec8c92"/>
      <path id="Path-3" data-name="Path" d="M0,0S19.754,2.98,21.351,9.567C19.216,14.91,5.77,10.114,0,0Z" transform="translate(454.899 301.445)" fill="#fff"/>
      <path id="Rectangle" d="M0,0,18.286,0V1.769L0,1.764Z" transform="translate(396.254 353.951) rotate(-30.97)" fill="#fff"/>
      <path id="Path-4" data-name="Path" d="M1.173,13.667,0,12.344C5.294,7.6,12.846,1.614,18.528,0l.485,1.7C13.649,3.227,6.361,9.047,1.173,13.667Z" transform="translate(376.095 330.789)" fill="#fff"/>
      <path id="Path-5" data-name="Path" d="M1.235,19.275,0,18.014C6.3,11.842,15.228,3.721,21.977,0l.882,1.552C16.26,5.167,7.455,13.191,1.235,19.275Z" transform="translate(277.537 346.343)" fill="#fff"/>
      <path id="Path-6" data-name="Path" d="M1.42,13.94,0,12.891C3.653,7.953,9.008,1.7,13.772,0l.591,1.658C10.975,2.874,6.379,7.23,1.42,13.94Z" transform="translate(269.702 305.192)" fill="#fff"/>
      <path id="Path-7" data-name="Path" d="M1.491,19.98,0,19.046C.388,18.42,9.573,3.809,16.763,0l.882,1.552C10.825,5.149,1.623,19.83,1.491,19.98Z" transform="translate(244.364 300.916)" fill="#fff"/>
      <path id="Path-8" data-name="Path" d="M1.456,18.711,0,17.767C3.653,12,9.281,4.241,15.387,0l1.006,1.446C10.49,5.52,5.02,13.085,1.456,18.711Z" transform="translate(236.282 344.527)" fill="#fff"/>
      <path id="Path-9" data-name="Path" d="M1.694,21.726,0,21.224C.159,20.7,3.917,8.491,12.652,0l1.226,1.27C5.47,9.479,1.729,21.647,1.694,21.726Z" transform="translate(153.588 315.306)" fill="#fff"/>
      <path id="Path-10" data-name="Path" d="M1.676,23.357,0,22.8C.176,22.282,4.411,9.867,13.543,0l1.3,1.2C5.946,10.775,1.712,23.234,1.676,23.357Z" transform="translate(129.466 322.166)" fill="#fff"/>
      <path id="Path-11" data-name="Path" d="M471.666,102.617a131.392,131.392,0,0,0-12.493-15.633,3.6,3.6,0,0,1,.512-5.29,44.49,44.49,0,0,1,7.94-4.629c.459-.212.741-.52.715-.776s-.362-.547-.882-.688a26.721,26.721,0,0,0-15.581.538c-1.818.582-3.97-.132-6.22-2.046l-.882-.732a5.43,5.43,0,0,1-1.932-3.818,37.064,37.064,0,0,0-7.508-20.58.886.886,0,0,0-1.57.52c-.1,1.367-.282,2.98-.538,4.805a5.832,5.832,0,0,1-8.92,4.109l-.115-.071a4.407,4.407,0,0,1-1.862-4.92l2.214-7.759a.37.37,0,0,0-.141-.423.38.38,0,0,0-.45,0L418.1,49.007a9.057,9.057,0,0,1-9.211.379A281.412,281.412,0,0,0,376.7,34.705a3.526,3.526,0,0,1-1.765-5.149l4.535-7.124a1.243,1.243,0,0,0-.088-1.5,1.262,1.262,0,0,0-1.465-.379l-16.225,6.419a10.416,10.416,0,0,1-6.846.256c-9.8-2.98-20.063-5.617-30.509-7.821a2.274,2.274,0,0,1-1.156-3.809c1.906-1.949,3.458-3.571,4.932-5.105,2.17-2.266,4.217-4.409,7.005-7.186a.881.881,0,0,0,.124-1.067.812.812,0,0,0-.97-.379c-8.823,2.645-20.68,7.936-27.641,12.4a7.062,7.062,0,0,1-4.976,1.005c-20.557-3.386-38.476-4.708-63.894-4.708-13.234,0-26.627.617-39.755,1.816a2.418,2.418,0,0,1-2.426-1.393l-.953-2.037a1.262,1.262,0,0,0-1.765-.573l-5.214,2.883a4.254,4.254,0,0,1-5.894-1.869l-.247-.511a.588.588,0,0,0-.873-.212L177.1,11.3a2.382,2.382,0,0,1-3.82-1.9v-5a1.251,1.251,0,0,0-.088-.741.979.979,0,0,0-.221.22l-8.134,10.81a8.93,8.93,0,0,1-5.135,2.971C128.827,23.419,103.7,31.284,80.5,42.4a4.617,4.617,0,0,1-4.817-.467A73.2,73.2,0,0,0,44.756,28.286a.485.485,0,0,0-.565.309.5.5,0,0,0,.176.644c5.294,3.853,9.943,7.38,13.7,10.484a3.068,3.068,0,0,1-1.941,5.432H49.52a.414.414,0,0,0-.2.776c1.429.741,2.779,1.517,4.014,2.284a5.174,5.174,0,0,1,0,8.817c-3.653,2.275-7.208,4.638-10.587,7.054a4.413,4.413,0,0,1-5.991-.882l-6.705-8.377a1.544,1.544,0,0,0-.221-.238,1.525,1.525,0,0,0,0,.838l3.361,13.288a3.279,3.279,0,0,1-1.076,3.43l-.512.423a2.913,2.913,0,0,1-2.867.494c-3.088-1.129-11.637-3.395-24.324,0C11,74.507,16.179,76.367,19.788,78.607a2.645,2.645,0,0,1,1.473,2.143,1.763,1.763,0,0,1-.512,1.287,3.927,3.927,0,0,1-2.647,1,40.9,40.9,0,0,0-16,4,.661.661,0,0,0,.326,1.243,45.119,45.119,0,0,1,7.543.344,2.426,2.426,0,0,1,1.941,1.543,2.477,2.477,0,0,1-.415,2.487c-2.691,3.236-5.223,6.6-7.517,9.99l-1.456-.988A125.629,125.629,0,0,1,10.162,91.5a.74.74,0,0,0,.124-.723.679.679,0,0,0-.547-.432A42.462,42.462,0,0,0,2.5,90.017,2.426,2.426,0,0,1,.087,88.253,2.389,2.389,0,0,1,1.3,85.493a42.307,42.307,0,0,1,16.763-4.206c1.226-.044,1.615-.4,1.659-.52s-.229-.406-.653-.661c-3.432-2.134-8.417-3.924-14.813-5.29a1.763,1.763,0,0,1-.079-3.439c13.172-3.527,22.136-1.1,25.383.088a1.147,1.147,0,0,0,1.129-.2l.512-.423a1.525,1.525,0,0,0,.5-1.614L28.346,55.937a2.424,2.424,0,0,1,.882-2.963,1.88,1.88,0,0,1,2.382.829l6.688,8.35a2.648,2.648,0,0,0,3.591.52c3.379-2.407,6.961-4.788,10.649-7.054a3.411,3.411,0,0,0,0-5.819c-1.2-.741-2.514-1.49-3.9-2.213a2.178,2.178,0,0,1,1-4.1H56.26a1.27,1.27,0,0,0,1.218-.882,1.3,1.3,0,0,0-.406-1.455c-3.723-3.077-8.3-6.578-13.6-10.413a2.293,2.293,0,0,1,1.765-4.118A75.217,75.217,0,0,1,76.923,40.6a2.825,2.825,0,0,0,2.973.282C103.241,29.7,128.544,21.788,159.547,16a7.1,7.1,0,0,0,4.076-2.345l7.993-10.863a1.95,1.95,0,0,1,2.267-.882,2.327,2.327,0,0,1,1.262,2.557V9.382a.582.582,0,0,0,.344.547.6.6,0,0,0,.644-.053l3.529-2.645a2.366,2.366,0,0,1,1.959-.414,2.32,2.32,0,0,1,1.562,1.261l.247.511a2.426,2.426,0,0,0,1.42,1.261,2.454,2.454,0,0,0,1.959-.194l5.214-2.883a3.027,3.027,0,0,1,4.208,1.367l.953,2.046a.644.644,0,0,0,.662.379c13.234-1.208,26.618-1.825,39.922-1.825,25.524,0,43.522,1.331,64.176,4.735a5.367,5.367,0,0,0,3.741-.749A128.506,128.506,0,0,1,333.777.114a2.586,2.586,0,0,1,2.991,1.164,2.644,2.644,0,0,1-.4,3.218c-2.77,2.769-4.808,4.9-6.97,7.16-1.482,1.543-3.035,3.165-4.95,5.123a.485.485,0,0,0-.115.494.494.494,0,0,0,.379.353c10.49,2.222,20.8,4.867,30.659,7.865a8.66,8.66,0,0,0,5.682-.212l16.216-6.419a3.051,3.051,0,0,1,3.7,4.47l-4.535,7.116a1.792,1.792,0,0,0,.909,2.539,280.643,280.643,0,0,1,32.388,14.778,7.291,7.291,0,0,0,7.42-.309L423,43.672a2.161,2.161,0,0,1,3.247,2.407l-2.223,7.759a2.644,2.644,0,0,0,1.12,2.954l.106.071a4.077,4.077,0,0,0,6.229-2.874c.256-1.763.432-3.359.529-4.691a2.649,2.649,0,0,1,4.711-1.481A38.36,38.36,0,0,1,444.607,69.4a3.685,3.685,0,0,0,1.306,2.566l.882.732c1.235,1.049,3.017,2.2,4.552,1.763a28.363,28.363,0,0,1,16.578-.564,2.439,2.439,0,0,1,.4,4.77,42.355,42.355,0,0,0-7.587,4.409,1.825,1.825,0,0,0-.732,1.3,1.763,1.763,0,0,0,.468,1.393,132.644,132.644,0,0,1,12.66,15.871Z" transform="translate(54.079 270.752)" fill="#fff"/>
      <path id="Shape" d="M158.412,120.828a11.526,11.526,0,0,1-4.306-.882L6.557,60.782A9.936,9.936,0,0,1,.513,54.689a11.327,11.327,0,0,1,.38-7.777,12.939,12.939,0,0,1,4-5.347,10.306,10.306,0,0,1,6.34-2.248,10.689,10.689,0,0,1,3.983.8l10.587,4.232a2.227,2.227,0,0,0,1.968.1c2.138-1.082,3.525-6.688,5.132-13.179l.012-.047c.48-1.943.975-3.95,1.544-6.067l.106-.388.015-.057c1.089-4.075,2.734-10.233,6.405-15.4a21.971,21.971,0,0,1,7.205-6.591A23.049,23.049,0,0,1,59.524,0c.443,0,.9.01,1.354.029,7.182.288,10.63.681,16.888,1.393l.229.026h.158l1.02.118.015,0c1.316.152,2.808.325,4.461.506,5.853.642,9.763,2.176,12.678,4.973,3.532,3.4,5.373,8.635,5.629,16.012.352,10.238,2.644,12.547,6.749,13.227C144.07,42,144,57.262,143.925,72.018v2.7c0,8.825.864,17.336,7.129,19.839l11.124,4.408a10.55,10.55,0,0,1,6.335,6.42,11.855,11.855,0,0,1-.3,8.27,11.592,11.592,0,0,1-5.188,5.961A9.608,9.608,0,0,1,158.412,120.828ZM11.306,41.146h0a8.638,8.638,0,0,0-5.343,1.92,11.115,11.115,0,0,0-3.394,4.558,9.541,9.541,0,0,0-.352,6.56,8.2,8.2,0,0,0,5.029,5.009l147.523,59.12a8.471,8.471,0,0,0,3.5.751,8.565,8.565,0,0,0,3.885-.936,9.98,9.98,0,0,0,4.412-5.07,10.214,10.214,0,0,0,.274-7.053,8.858,8.858,0,0,0-5.294-5.352l-11.117-4.461c-7.2-2.886-8.213-12.02-8.24-21.462V72.086c.087-14.037.178-28.551-33.738-34.036-6.462-1.041-7.941-6.467-8.232-14.884-.238-6.9-1.9-11.744-5.09-14.805-2.653-2.509-6.245-3.9-11.647-4.5l-5.5-.617h-.142c-6.308-.721-9.782-1.119-17-1.411-.381-.015-.764-.023-1.137-.023A21.29,21.29,0,0,0,49.108,4.4a20.815,20.815,0,0,0-6.759,6.261C38.894,15.565,37.331,21.4,36.3,25.265l-.105.388c-.528,1.974-1,3.864-1.454,5.691l-.073.295c-1.857,7.524-3.2,12.96-6.07,14.4a4.041,4.041,0,0,1-3.414,0L14.594,41.807a8.792,8.792,0,0,0-3.287-.659Z" transform="translate(423.171 130.234)" fill="#fff"/>
      <path id="Shape-2" data-name="Shape" d="M115.482,70.844a9.115,9.115,0,0,1-1.658-.16L6.09,50.73a7.1,7.1,0,0,1-5.1-3.421,8.119,8.119,0,0,1-.83-5.493A9.072,9.072,0,0,1,3.1,36.649a7.183,7.183,0,0,1,6.176-1.587l7.7,1.42a2.65,2.65,0,0,0,.5.054.831.831,0,0,0,.624-.2c1.211-.944,1.385-5.055,1.57-9.408l.011-.244c.058-1.307.119-2.658.21-4.076v-.289c.379-5.966,1.167-18.379,14.644-20.519C39.582,1,42.115.782,46.312.427h.238L50.221.11C51.052.037,51.843,0,52.572,0a12.587,12.587,0,0,1,7.054,1.794c2.917,1.849,4.914,5.2,6.105,10.228.735,3.095,1.522,5.093,2.477,6.289a3.787,3.787,0,0,0,3.22,1.515c.122,0,.25,0,.382-.01,1.01-.039,2-.058,2.953-.058,22.151,0,24.187,10.445,25.983,19.661V39.6q.056.285.111.569c.066.343.134.7.208,1.044,1.2,5.867,2.916,11.409,7.3,12.221l8.117,1.5a7.519,7.519,0,0,1,5.293,3.606,8.444,8.444,0,0,1,.962,5.819C122.189,67.588,119.736,70.844,115.482,70.844Zm-1.341-1.9h0a7.215,7.215,0,0,0,1.316.126,5.288,5.288,0,0,0,3.82-1.536,6.719,6.719,0,0,0,1.78-3.52,6.79,6.79,0,0,0-.741-4.6,5.851,5.851,0,0,0-4.138-2.76l-8.117-1.507c-5.413-1-7.384-7.125-8.707-13.6-.1-.478-.2-.971-.291-1.449l-.036-.183v-.167C97.2,30.368,95.469,21.5,74.9,21.5c-.967,0-1.983.02-3.02.059-.106,0-.212.006-.316.006-4.472,0-6.2-3.5-7.536-9.158-1.081-4.544-2.813-7.535-5.294-9.145a10.834,10.834,0,0,0-6.057-1.525c-.693,0-1.448.039-2.245.114l-3.679.309h-.229c-4.326.359-6.708.556-11.663,1.349-12.1,1.924-12.785,12.971-13.155,18.905v.273c-.088,1.344-.146,2.63-.2,3.873l-.018.4,0,.04c-.237,5.37-.408,9.249-2.248,10.692a3.014,3.014,0,0,1-2.532.494L9,36.763a5.48,5.48,0,0,0-4.676,1.209,7.24,7.24,0,0,0-2.338,4.134A6.284,6.284,0,0,0,2.613,46.4,5.384,5.384,0,0,0,6.5,48.976L114.141,68.983v-.035Z" transform="translate(464.998 0)" fill="#fff"/>
      <path id="Shape-3" data-name="Shape" d="M8.059,77.294a7.3,7.3,0,0,1-3.3-.793,8.836,8.836,0,0,1-4-4.488,9.781,9.781,0,0,1-.4-6.428,7.82,7.82,0,0,1,4.624-5.061l7.9-3.289a1.5,1.5,0,0,0,.98-.882c.541-1.6-1.721-5.436-4.116-9.5l-.076-.128-.026-.044c-.763-1.286-1.553-2.616-2.346-4.029l-.151-.264c-3.213-5.667-9.9-17.458,1.112-27.422,3.764-3.4,5.894-5.071,9.119-7.608l.842-.663.115-.087,3.256-2.549C25.123,1.278,28.072.027,31.155,0h.124c3.709,0,7.475,1.863,11.513,5.7,3.321,3.155,5.645,4.562,7.534,4.562a4.653,4.653,0,0,0,2.788-1.035C61.457,3.317,68.4.446,74.33.446a17.064,17.064,0,0,1,9.678,3.01,44.22,44.22,0,0,1,7.186,6.428l1.394,1.428a41.043,41.043,0,0,0,5.84,5.108,10.56,10.56,0,0,0,5.852,2.207,6.138,6.138,0,0,0,2.37-.473l8.328-3.465a9.03,9.03,0,0,1,3.475-.729,7.933,7.933,0,0,1,4.776,1.613,9.4,9.4,0,0,1,3.025,3.932,8.92,8.92,0,0,1,.372,6.109,8.011,8.011,0,0,1-4.784,4.938L11.4,76.588a8.6,8.6,0,0,1-3.327.706ZM31.173,1.781c-2.648,0-5.265,1.134-8.487,3.677L19.421,8.015l-.105.079c-3.6,2.8-5.771,4.487-9.865,8.191C-.5,25.293,5.694,36.251,8.673,41.517l.012.022.15.264c.788,1.4,1.569,2.717,2.324,3.988l.015.025.017.029c2.99,5.058,5.151,8.713,4.34,11.089a3.188,3.188,0,0,1-1.967,1.914l-7.9,3.289a6.086,6.086,0,0,0-3.608,3.951,7.967,7.967,0,0,0,.335,5.237,6.959,6.959,0,0,0,3.167,3.6,6.026,6.026,0,0,0,5.162,0L121.2,28.9a6.294,6.294,0,0,0,3.761-3.872,7.17,7.17,0,0,0-.329-4.876,7.556,7.556,0,0,0-2.422-3.115,6.441,6.441,0,0,0-3.868-1.314,6.974,6.974,0,0,0-2.683.559l-8.328,3.474a7.93,7.93,0,0,1-3.066.622A11.963,11.963,0,0,1,97.675,18a41.754,41.754,0,0,1-6.34-5.483l-1.4-1.437a45.435,45.435,0,0,0-6.887-6.2A15.093,15.093,0,0,0,74.29,2.1c-5.46,0-12.054,2.789-20.159,8.526a6.528,6.528,0,0,1-3.833,1.34c-2.439,0-4.966-1.453-8.723-5.017-3.71-3.477-7.078-5.167-10.3-5.167Z" transform="translate(0 170.154)" fill="#fff"/>
    </g>
    <g id="man" transform="translate(9.577 0.003)">
      <path id="Path-12" data-name="Path" d="M5.913,47.808,87.964,185.439a13.6,13.6,0,0,1-3.82,18.569l-16.6,11.277a5.122,5.122,0,0,0,2.885,9.355h59.306a54.73,54.73,0,0,0,17.786-2.963L185,208.858c16-5.476,20.539-24.274,11.9-38.8l-41.1-73.185,1.959-.7A60.227,60.227,0,0,0,187.915,6.243L183.8,0H26.2C1.881-.035-6.995,27.211,5.913,47.808Z" transform="translate(91.315 451.968)" fill="#cbcbcb"/>
      <path id="Path-13" data-name="Path" d="M5.909,47.808,87.959,185.439a13.609,13.609,0,0,1-3.829,18.569L67.561,215.286a5.122,5.122,0,0,0,2.885,9.355h59.315a54.73,54.73,0,0,0,17.778-2.963l37.47-12.821c16-5.476,20.548-24.274,11.911-38.8L155.806,96.877l1.959-.7A60.227,60.227,0,0,0,187.929,6.243L183.809,0H26.2C1.877-.035-6.99,27.211,5.909,47.808Z" transform="translate(195.285 451.968)" fill="#efefef"/>
      <path id="Path-14" data-name="Path" d="M99.765,1.9C171.008,33.388,382.2,196.157,485.615,267.825c11.849,8.2,13.631,27.457-12.272,27.228L8.627,291.015c-8.673-.071-9.758-8.165-7.79-16.6,0,0,51.983-234.455,69.981-266.859C74.179,1.16,89.954-2.437,99.765,1.9Z" transform="translate(21.955)" fill="#fff"/>
      <path id="Path-15" data-name="Path" d="M1.324,40.756C7.35,19.594,25.383,7.021,61.671,2.2,79.316-.148,100.737,0,125.7,0,244.37,0,351.362,89.728,351.362,164.085c0,45.851-55.936,62.251-162.222,13.014-44.184-.608-76.219-.406-115.78-.282C34.294,123.816-8.072,73.663,1.324,40.756Z" transform="translate(79.812 275.115)" fill="#2c3e50"/>
      <path id="Path-16" data-name="Path" d="M21.016,81.632H9.37A9.367,9.367,0,0,1,0,72.267V0H26.468L44.484,19.619a23.8,23.8,0,0,1,6.273,16.109V51.855A29.759,29.759,0,0,1,21.016,81.632Z" transform="translate(161.086 262.799)" fill="#ec8c92"/>
      <path id="Path-17" data-name="Path" d="M52.707,44.222h-.882a1.87,1.87,0,0,1-1.87-1.869V19.948c5.929-3.4,4.314-12.794,2.647-16.533-1.765-4-4.544-4.347-5.294-1.763A8.633,8.633,0,0,1,38.485,7.9C30.006,7.709,29.45.364,15.175.638A15.585,15.585,0,0,0,0,16.289V87.26a9.014,9.014,0,0,0,8.99,8.985H27.253A22.667,22.667,0,0,0,49.928,73.584V72.359a4.162,4.162,0,0,1,2.647-3.915,8.632,8.632,0,0,0,5.585-8.068V49.627a5.407,5.407,0,0,0-5.452-5.405Z" transform="translate(144.491 221.663)" fill="#f2bdba"/>
      <path id="Shape-4" data-name="Shape" d="M39.331,25.8c-5.545,0-10.541-4.571-12.431-11.375a.665.665,0,0,0-.617-.5.654.654,0,0,0-.619.5,17.115,17.115,0,0,1-4.825,8.237A11.226,11.226,0,0,1,13.233,25.8C5.936,25.8,0,18.039,0,8.5V8.051C0,6.264,0,4.974.044,3.033A3.111,3.111,0,0,1,3.14,0H49.451a3.131,3.131,0,0,1,3.115,3.113V8.5C52.566,18.039,46.629,25.8,39.331,25.8ZM26.283,12.171A2.4,2.4,0,0,1,28.6,13.958,15.755,15.755,0,0,0,32.733,21.2a9.5,9.5,0,0,0,6.6,2.833c6.324,0,11.469-6.97,11.469-15.536V3.113a1.351,1.351,0,0,0-1.35-1.35H3.158a1.342,1.342,0,0,0-1.35,1.314c-.044,2.072-.044,3.4-.044,5.422,0,8.567,5.145,15.536,11.469,15.536a9.49,9.49,0,0,0,6.6-2.833,15.811,15.811,0,0,0,4.133-7.244A2.4,2.4,0,0,1,26.283,12.171Z" transform="translate(135.554 262.085)"/>
      <path id="Path-18" data-name="Path" d="M4.341,5.44H4.208A4.2,4.2,0,0,1,0,1.243H0A1.244,1.244,0,0,1,1.244,0H7.3A1.244,1.244,0,0,1,8.54,1.243h0a4.2,4.2,0,0,1-4.2,4.2Z" transform="translate(148.188 268.151)"/>
      <path id="Path-19" data-name="Path" d="M4.341,5.44H4.208A4.207,4.207,0,0,1,0,1.243H0A1.244,1.244,0,0,1,1.244,0H7.305A1.244,1.244,0,0,1,8.54,1.243h0A4.2,4.2,0,0,1,4.341,5.44Z" transform="translate(167.289 268.151)"/>
      <path id="Path-20" data-name="Path" d="M10.437,3.315H0V1.552H10.437A3.38,3.38,0,0,0,13.287,0l1.482.952a5.136,5.136,0,0,1-4.332,2.363Z" transform="translate(162.56 292.743)"/>
      <path id="Path-21" data-name="Path" d="M11.09,0,2.126,12.344a11.15,11.15,0,0,0,3.8,16.4l10.411,5.529a15.737,15.737,0,0,0,20.2-4.77l3.529-4.973Z" transform="translate(214.667 422.288)" fill="#ec8c92"/>
      <path id="Path-22" data-name="Path" d="M28.965,0l8.964,12.344a11.15,11.15,0,0,1-3.8,16.4L23.715,34.273A15.737,15.737,0,0,1,3.529,29.53L0,24.556Z" transform="translate(146.423 422.288)" fill="#ec8c92"/>
      <path id="Path-23" data-name="Path" d="M10.918,66.563A86.709,86.709,0,0,1,3.516,0L5.21.494a84.946,84.946,0,0,0,7.252,65.249Z" transform="translate(246.432 308.35)"/>
      <path id="Path-24" data-name="Path" d="M9.979,67.012C-.934,43.849-2.8,23.2,3.918,0l1.7.494C-.978,23.2.857,43.47,11.576,66.21Z" transform="translate(110.691 310.043)"/>
      <path id="Shape-5" data-name="Shape" d="M241.751,291.627c-15.37,0-29.109-.051-42-.154L65.2,290.918l-16.825-.071H39.946a45.7,45.7,0,0,1-10.076-1.172,39.24,39.24,0,0,1-18.369-9.7A36.936,36.936,0,0,1,1.029,261.741,39.69,39.69,0,0,1,1.753,241.1a43.77,43.77,0,0,1,4.005-9.285c.221-.421.478-.827.728-1.219.19-.3.385-.607.56-.914l.662-1.041.592-.882,2.364-3.527,18.881-27.766L105.18,85.119l37.805-55.664,9.458-13.914a41.571,41.571,0,0,1,6.635-7.38,35.759,35.759,0,0,1,4.076-3.1,31.148,31.148,0,0,1,4.622-2.513A29.215,29.215,0,0,1,188.951,1.5a34.906,34.906,0,0,1,9.2,4.726,44.111,44.111,0,0,1,3.891,3.131l.882.882.882.8,1.49,1.48L396.513,201.677A59.525,59.525,0,0,1,407.92,217.3a56.516,56.516,0,0,1,5.655,18.676,53.939,53.939,0,0,1-1.191,19.654,48.61,48.61,0,0,1-8.716,18.084,45.149,45.149,0,0,1-15.881,12.873,48.871,48.871,0,0,1-19.568,4.691h-17.1l-16.824.062c-11.332.031-22.847.079-33.982.125h-.047C281.088,291.545,261.256,291.627,241.751,291.627Zm-62.1-278.508a15.447,15.447,0,0,0-6.526,1.435,25.093,25.093,0,0,0-9.882,8.64l-9.325,13.976-37.295,55.9L42.045,204.886l-18.65,27.942-2.33,3.527-.582.882-.45.731c-.1.174-.213.347-.32.514l-.005.008a9.107,9.107,0,0,0-.557.951,28.578,28.578,0,0,0-2.586,6.173,24.16,24.16,0,0,0-.379,12.555,21.18,21.18,0,0,0,6.123,10.467,23.431,23.431,0,0,0,11.064,5.669,30.839,30.839,0,0,0,6.554.706h8.426l16.825-.071,134.545-.564c13.006-.1,26.834-.152,42.274-.152,20.405,0,41.142.088,61.2.172h.254c10.1.043,20.549.087,30.822.119l33.358.089a32.476,32.476,0,0,0,12.943-2.946,28.319,28.319,0,0,0,10.058-8.032,32.35,32.35,0,0,0,5.833-11.946,37.594,37.594,0,0,0,.925-13.7,40.452,40.452,0,0,0-3.944-13.368,43.481,43.481,0,0,0-8.257-11.568L195.877,21.882l-1.474-1.5-.361-.361-.318-.3-.626-.6a30.044,30.044,0,0,0-2.646-2.151,21.486,21.486,0,0,0-5.673-2.981A15.52,15.52,0,0,0,179.649,13.119Z" transform="translate(1.762 142.674)" fill="#fff"/>
      <path id="Shape-6" data-name="Shape" d="M243.093,295.18c-15.207,0-28.808-.052-41.581-.158l-134.545-.555L50.15,294.4H41.7a48.059,48.059,0,0,1-10.446-1.217,40.648,40.648,0,0,1-19.2-10.166,38.807,38.807,0,0,1-10.967-19.1,41.267,41.267,0,0,1,.741-21.558,46.377,46.377,0,0,1,4.147-9.629c.3-.566.625-1.08.926-1.551l.423-.679.662-1.041.591-.882,2.365-3.474,18.907-27.836,75.611-111.3L143.274,30.3l9.467-13.941a43.476,43.476,0,0,1,6.916-7.7,38.278,38.278,0,0,1,4.288-3.324,32.575,32.575,0,0,1,4.871-2.645A30.7,30.7,0,0,1,179.922.044C180.434,0,180.964,0,181.476,0a31,31,0,0,1,9.775,1.6,36.039,36.039,0,0,1,9.679,5.027,44.091,44.091,0,0,1,4.05,3.254l.882.881.882.82,1.5,1.482L399.518,202.191a61.022,61.022,0,0,1,11.734,16.084,57.857,57.857,0,0,1,5.84,19.256,55.325,55.325,0,0,1-1.226,20.307,50.629,50.629,0,0,1-9.034,18.745A46.8,46.8,0,0,1,390.3,289.961a50.975,50.975,0,0,1-20.292,4.867H352.9l-16.824.062c-12.327.038-23.738.081-34.885.132l-8.029.03h-.02C276.739,295.115,259.779,295.18,243.093,295.18ZM181.476,1.763c-.244,0-.49.011-.728.022s-.486.022-.728.022a28.892,28.892,0,0,0-10.482,2.5,31.078,31.078,0,0,0-4.622,2.513,35.765,35.765,0,0,0-4.076,3.1,41.579,41.579,0,0,0-6.635,7.38l-9.458,13.914L106.942,86.887,31.306,198.233,12.424,226l-2.364,3.527-.592.881-.662,1.041c-.177.312-.372.619-.561.916-.249.392-.506.8-.727,1.218a43.748,43.748,0,0,0-4.005,9.284,39.689,39.689,0,0,0-.724,20.642,36.94,36.94,0,0,0,10.473,18.235,39.229,39.229,0,0,0,18.368,9.7,45.765,45.765,0,0,0,10.076,1.172h8.434l16.825.071,134.545.555c13.848.105,27.835.158,41.572.158,19.1,0,38.512-.082,57.288-.161h.012c11.677-.049,23.751-.1,35.673-.131l16.824-.061h17.1a48.868,48.868,0,0,0,19.568-4.691,45.143,45.143,0,0,0,15.881-12.873,48.593,48.593,0,0,0,8.716-18.085,53.956,53.956,0,0,0,1.227-19.636,56.511,56.511,0,0,0-5.655-18.675,59.554,59.554,0,0,0-11.407-15.625L207.034,14.293l-1.491-1.482-.882-.8-.882-.881A43.725,43.725,0,0,0,199.888,8a34.832,34.832,0,0,0-9.2-4.726A29.573,29.573,0,0,0,181.476,1.763Z" transform="translate(0 140.907)" fill="#93b4f6"/>
      <path id="Path-25" data-name="Path" d="M377.927,211.406a43.569,43.569,0,0,0-8.258-11.463L180.343,8.773l-1.473-1.5-.362-.362-.318-.3-.626-.6a30.048,30.048,0,0,0-2.647-2.151,21.523,21.523,0,0,0-5.673-2.98A15.889,15.889,0,0,0,164.092,0a15.712,15.712,0,0,0-6.5,1.428,25.078,25.078,0,0,0-9.881,8.641l-9.326,13.976-37.293,55.9L26.512,191.779,7.861,219.721l-2.329,3.527-.582.882-.45.732c-.291.494-.635.961-.882,1.473a28.55,28.55,0,0,0-2.585,6.172,24.137,24.137,0,0,0-.379,12.556,21.247,21.247,0,0,0,6.123,10.466,23.429,23.429,0,0,0,11.064,5.67,30.614,30.614,0,0,0,6.591.705V260.14a29.07,29.07,0,0,1-6.176-.661,21.62,21.62,0,0,1-10.234-5.238,19.4,19.4,0,0,1-5.611-9.6A22.181,22.181,0,0,1,2.761,233a26.444,26.444,0,0,1,2.426-5.758v-.106a6.813,6.813,0,0,1,.45-.767c.115-.185.238-.379.353-.582l.415-.67.573-.882,2.329-3.527L27.95,192.766l74.578-111.8,37.3-55.9,9.317-13.976a23.182,23.182,0,0,1,9.14-8.006,13.8,13.8,0,0,1,5.779-1.279,14.036,14.036,0,0,1,4.579.776,19.528,19.528,0,0,1,5.205,2.733,26.7,26.7,0,0,1,2.488,2.019l.6.582.309.282.344.344,1.473,1.49L368.4,201.178a41.629,41.629,0,0,1,7.94,11,38.347,38.347,0,0,1,3.785,12.785c1.041,8.914-1.341,18.014-6.388,24.363a26.359,26.359,0,0,1-9.44,7.53,30.488,30.488,0,0,1-12.211,2.777l-33.323-.088q-17.442-.053-34.876-.132c-19.039-.079-38.731-.159-58.106-.159-15.219,0-28.824.053-41.581.15l-134.545.564-16.816.071H24.456v1.763h8.373l16.825-.071,134.545-.564q20.8-.159,41.572-.15c30.994,0,61.988.2,92.973.291l33.358.088a32.66,32.66,0,0,0,12.943-2.945,28.159,28.159,0,0,0,10.058-8.033c5.461-6.869,7.843-16.436,6.758-25.65A40.543,40.543,0,0,0,377.927,211.406Z" transform="translate(17.295 155.782)" fill="#93b4f6"/>
      <path id="Path-26" data-name="Path" d="M18.237,62.681c2.356,4.409,10.922,5.29,16.922.829,3.529,4.947,13.825,4.947,18.978-.829,7.632,7.283,25.586-.732,30.429-17.573-11.134,0-10.375-17.317.785-17.723C81.892,11.513,67.564-2.674,43.682.43,29.892,2.193,13.226,5.447,6.106,16.539-.749,27.226,0,37.437.045,45.108.133,61.861,9.52,68.43,18.237,62.681Z" transform="translate(96.319 389.322)" fill="#f2bdba"/>
      <path id="Path-27" data-name="Path" d="M13.3,8.756A8.247,8.247,0,0,1,16.9,2.2c1.253-.97.521-2.2-1.059-2.2H9.087C2.911,0,0,3.095,0,9.047s2.876,9.038,9.087,9.038h4.8c1.906,0,3.635-1.578,3.441-2.487A7.171,7.171,0,0,1,13.3,8.756Z" transform="translate(170.324 141.507)" fill="#274d76"/>
      <path id="Path-28" data-name="Path" d="M67.935,62.714c-2.356,4.409-11.187,5.29-17.187.829-2.541,4.947-13.56,4.947-18.713-.829C24.271,70.121,6.449,61.48,1.324,44.2-4.72,23.917,10.093-3.778,42.49.428c17.645,2.284,39.7,7.054,41.228,27.149-9.14.062-11.893,17.529,2.409,17.529C88,61.832,76.687,68.463,67.935,62.714Z" transform="translate(218.654 389.289)" fill="#f2bdba"/>
      <path id="Rectangle-2" data-name="Rectangle" d="M0,0H1.764l0,11.933H0Z" transform="translate(274.818 441.037) rotate(-44.11)"/>
      <path id="Rectangle-3" data-name="Rectangle" d="M0,0H1.764l0,11.175H0Z" transform="translate(257.518 441.91) rotate(-44.11)"/>
      <path id="Rectangle-4" data-name="Rectangle" d="M0,0H1.764l0,12.233H0Z" transform="matrix(0.718, -0.696, 0.696, 0.718, 238.732, 440.898)"/>
      <path id="Rectangle-5" data-name="Rectangle" d="M0,0H1.764l0,10.141H0Z" transform="translate(107.226 440.729) rotate(-29.46)"/>
      <path id="Rectangle-6" data-name="Rectangle" d="M0,0H1.764l0,9.224H0Z" transform="translate(123.818 440.831) rotate(-29.45)"/>
      <path id="Rectangle-7" data-name="Rectangle" d="M0,0H1.764l0,9.8H0Z" transform="translate(143.133 440.83) rotate(-29.45)"/>
      <path id="Rectangle-8" data-name="Rectangle" d="M0,0H1.764l.027,109.412H.027Z" transform="translate(195.008 182.069) rotate(-28.11)" fill="#2c3e50"/>
      <path id="Rectangle-9" data-name="Rectangle" d="M0,0H1.764l.015,60.257H.015Z" transform="translate(139.459 78.14) rotate(-28.11)" fill="#2c3e50"/>
      <path id="Rectangle-10" data-name="Rectangle" d="M0,0H1.764l.01,40.627H.01Z" transform="translate(105.307 14.258) rotate(-28.11)" fill="#2c3e50"/>
      <path id="Path-29" data-name="Path" d="M51.03,21.87C56.88,15.5,54.295,7.154,52.6,3.415c-1.765-4-4.544-4.347-5.294-1.763A8.633,8.633,0,0,1,38.484,7.9C30.006,7.709,29.45.364,15.175.638A15.717,15.717,0,0,0,0,16.289c0,13.385,12.784-2.028,23.521,5.449C38.484,32.116,47.025,26.235,51.03,21.87Z" transform="translate(144.438 221.663)"/>
      <rect id="Rectangle-11" data-name="Rectangle" width="60.038" height="1.763" transform="translate(195.283 645.272)" fill="#fff"/>
      <rect id="Rectangle-12" data-name="Rectangle" width="70.625" height="1.763" transform="translate(296.479 645.272)"/>
      <path id="Rectangle-13" data-name="Rectangle" d="M0,0H1.764l.01,38.432H.01Z" transform="translate(325.876 505.772) rotate(-29.3)"/>
    </g>
  </g>
</svg>
